<svg xmlns="http://www.w3.org/2000/svg" fill="none" viewBox="0 0 200 197" height="600" width="600"><g id="knowledge-base-2--customer-service-support-knowledge-base-2"><g id="color"><g id="group"><path id="vector" fill="#eadcf8" d="M31.424 98.132a6.92 6.92 0 0 0-.25 3.27 6.97 6.97 0 0 0 1.284 3.026c1.622 2.004 5.021 3.003 7.595 3.227-.017.12-.011 1.02-.011 7.092a.357.357 0 0 0 .113.241.368.368 0 0 0 .501 0 .356.356 0 0 0 .113-.241c0-7.222.017-6.953 0-7.051 1.864.097 3.72-.3 5.374-1.15v-14.27c-5.575-2.701-13.056.35-14.719 5.856Z"></path><path id="vector_2" fill="#eadcf8" d="M109.725 55.643a11.542 11.542 0 0 0-5.642-1.547 11.552 11.552 0 0 0-5.678 1.414 6.571 6.571 0 0 0-2.109 1.74c-.57.72-.98 1.55-1.204 2.437a6.4 6.4 0 0 0 .95 5.217c1.843 2.694 5.149 4.093 8.359 4.39-.02.116-.013.732-.013 6.698a.365.365 0 0 0 .728 0c0-6.872.016-6.556 0-6.655 5.214.208 8.453-2.548 9.212-5.89.766-3.4-1.784-6.247-4.603-7.804Z"></path><path id="vector_3" fill="#eadcf8" d="M164.932 79.743a10.282 10.282 0 0 0-2.867-3.493 10.464 10.464 0 0 0-4.108-1.948c-3.362-.758-6.28.389-8.759 2.827v10.36a11.345 11.345 0 0 0 7.029 2.57v5.676a.355.355 0 0 0 .113.241.367.367 0 0 0 .501 0 .355.355 0 0 0 .113-.24v-5.701c6.165-.407 9.585-6.462 7.978-10.292Z"></path><path id="vector_4" fill="#eadcf8" d="M34.07 83.704a11.779 11.779 0 0 0-2.894-4.05 11.996 11.996 0 0 0-4.328-2.52 12.274 12.274 0 0 0-5.139-.207 12.198 12.198 0 0 0-4.761 1.914c-3.523 2.396-5.454 7.112-3.611 11.102 1.632 3.534 5.84 5.461 9.731 5.609v7.33a.364.364 0 0 0 .614.241.355.355 0 0 0 .113-.241v-7.321c3.371-.01 6.581-.683 9.049-2.926 2.28-2.074 2.313-6.144 1.226-8.93Z"></path><path id="vector_5" fill="#eadcf8" d="M192.3 91.91c-9.285-10.43-30.911 3.586-22.991 13.214 2.659 3.232 7.209 3.684 11.42 3.431v11.615a.354.354 0 0 0 .113.241.368.368 0 0 0 .501 0 .354.354 0 0 0 .113-.241v-11.662c2.707-.227 6.928-.908 9.061-2.555 4.255-3.288 5.683-9.666 1.783-14.043Z"></path><path id="vector_6" fill="#eadcf8" d="M68.822 136.237c-11.346 9.568-16.841 3.614-28.067-1.044-6.319-2.622-12.372-4.027-19.053-2.793-6.568 1.21-12.47 4.717-16.619 9.875-.284.36.227.87.515.507a27.094 27.094 0 0 1 14.68-9.341c6.614-1.638 12.589-.566 18.932 1.899 7.021 2.729 12.214 6.613 18.128 6.719 9.155.163 18.2-11.085 23.924-18.231v-1.146c-3.8 4.777-7.744 9.596-12.44 13.555Z"></path><path id="vector_7" fill="#eadcf8" d="m50.02 135.701-1.247-2.704c-.193-.42-.82-.055-.628.361l1.247 2.704c.193.42.82.055.628-.361Z"></path><path id="vector_8" fill="#eadcf8" d="m51.884 135.984 1.046-3.309c.14-.442-.562-.63-.7-.191l-1.046 3.31c-.141.441.561.628.7.19Z"></path><path id="vector_9" fill="#eadcf8" d="m13.845 115.263 2.042 2.167c.319.339.832-.169.514-.508l-2.041-2.167c-.319-.338-.833.169-.515.508Z"></path><path id="vector_10" fill="#eadcf8" d="M17.605 113.988v3.191c0 .096.038.187.107.254a.368.368 0 0 0 .514 0 .355.355 0 0 0 .107-.254v-3.191a.364.364 0 0 0-.364-.358.364.364 0 0 0-.364.358Z"></path><path id="vector_11" fill="#eadcf8" d="M171.79 109.493a100.994 100.994 0 0 1-13.6 12.968c-5.78 4.553-8.023 3.978-18.414-.219-3.275-1.322-13.133-5.53-14.811-6.254v.778c4.54 1.961 16.826 7.296 21.559 8.746 6.118 1.871 8.447.525 13.5-3.604a100.81 100.81 0 0 0 12.28-11.909c.304-.348-.204-.861-.514-.506Z"></path><path id="vector_12" fill="#eadcf8" d="M147.65 135.794a.369.369 0 0 0-.653-.068.354.354 0 0 0-.047.258l.829 2.782a.36.36 0 0 0 .175.199.372.372 0 0 0 .266.028.36.36 0 0 0 .259-.418l-.829-2.781Z"></path><path id="vector_13" fill="#eadcf8" d="M149.787 134.887v3.783c0 .095.038.187.107.254a.366.366 0 0 0 .621-.254v-3.783a.356.356 0 0 0-.107-.254.366.366 0 0 0-.621.254Z"></path><path id="vector_14" fill="#eadcf8" d="m155.722 109.266 1.139 3.225c.153.432.856.246.7-.19l-1.139-3.225c-.152-.431-.855-.247-.7.19Z"></path><path id="vector_15" fill="#eadcf8" d="m159.539 109.17-.324 3.225c-.046.459.682.456.728 0l.324-3.225c.046-.458-.682-.455-.728 0Z"></path><path id="vector_16" fill="#eadcf8" d="M189.843 123.49c-.3-.353-.814.156-.514.507l2.2 2.579c.3.354.814-.155.514-.506l-2.2-2.58Z"></path><path id="vector_17" fill="#eadcf8" d="m194.285 123.648-.592 2.194a.352.352 0 0 0 .046.259.364.364 0 0 0 .479.131.363.363 0 0 0 .175-.199l.592-2.194a.36.36 0 0 0-.259-.418.372.372 0 0 0-.266.028.36.36 0 0 0-.175.199Z"></path><path id="vector_18" fill="#ffffff" d="M46.872 90.41c0 .147-.005 19.98-.005 25.341l8.443 3.349c.025-.843.016 2.626.016-25.338l-8.454-3.353Z"></path><path id="vector_19" fill="#ffffff" d="M55.6 93.1c1.365-1.448-4.17 4.17 17.528-17.519a6.677 6.677 0 0 0-3.522-3.255 6.813 6.813 0 0 0-4.829-.086c-.257.092.964-1.078-17.63 17.51L55.6 93.1Z"></path><path id="vector_20" fill="#e9e9e9" d="M73.883 75.468a7.393 7.393 0 0 0-3.726-3.69 7.554 7.554 0 0 0-5.274-.328 1.938 1.938 0 0 0-.861.41c-1.08 1.083-16.753 16.686-17.693 17.685-.094.099-.147-.048-.175.684-.059 1.51-.011 6.778-.011 25.763a.373.373 0 0 0 .267.344c9.816 3.89 9.14 3.638 9.266 3.645.242.019-.324.499 7.831-7.653 0-16.424-.045-15.577.081-15.722.293-.337-1.881 1.871 10.348-10.355-.003-11.112.019-10.627-.053-10.783ZM55.31 119.103l-8.443-3.349s.008-25.202.005-25.342l8.454 3.35c0 28.15.008 24.526-.016 25.336v.005ZM55.6 93.1l-8.453-3.349L64.59 72.317c.022.024.014-.037.588-.197a6.81 6.81 0 0 1 4.622.296 6.67 6.67 0 0 1 3.328 3.174C72.6 76.11 56.255 92.402 55.6 93.1Z"></path><path id="vector_21" fill="#ffffff" d="M64.234 97.355v25.342l8.448 3.349v-25.34l-8.448-3.35Z"></path><path id="vector_22" fill="#ffffff" d="m64.508 96.695 8.454 3.349c1.147-1.218 14.082-14.073 17.528-17.519a6.68 6.68 0 0 0-3.523-3.254 6.815 6.815 0 0 0-4.829-.087c-.19.07-12.338 12.224-17.63 17.511Z"></path><path id="vector_23" fill="#e9e9e9" d="M91.247 82.414a7.393 7.393 0 0 0-3.726-3.69 7.554 7.554 0 0 0-5.274-.328 1.946 1.946 0 0 0-.862.41c-14.626 14.62-17.2 17.16-17.675 17.657-.2.209-.177.206-.188.463-.043 1.02-.016 5.521-.016 26.012.002.078.03.153.077.215a.38.38 0 0 0 .19.131c10.15 4.023 9.112 3.619 9.237 3.644.266.05-.253.46 8.254-8.043 0-16.131-.04-15.169.075-15.331.086-.122 1.636-1.697 6.879-7.067.19-.285.311-.132 3.081.928.001-15.501.024-14.836-.052-15.001Zm-9.109-3.228a6.816 6.816 0 0 1 4.83.087 6.68 6.68 0 0 1 3.522 3.254c-.529.53-16.87 16.821-17.528 17.519l-8.454-3.349c18.2-18.193 17.352-17.411 17.63-17.51Zm-9.456 46.859-8.448-3.349s.017-24.446 0-25.343l8.448 3.349c0 27.965.026 24.491 0 25.343Z"></path><path id="vector_24" fill="#9345db" d="M124.965 93.691a7.092 7.092 0 0 1-1.3 4.11 7.646 7.646 0 0 1-2.422 2.204 7.781 7.781 0 0 1-3.136 1.005c-.1.013-.011-.352-.011 25.759a.377.377 0 0 1-.282.35 7.476 7.476 0 0 0 5.162-2.331 7.256 7.256 0 0 0 1.985-5.241c.004-11.742.015-25.754.004-25.856Z"></path><path id="vector_25" fill="#ffffff" d="M117.832 100.311c1.805.259 6.228-1.864 6.39-6.439l-23.27-8.91-6.307 6.459 23.187 8.89Z"></path><path id="vector_26" fill="#e9e9e9" d="M124.938 93.498a.426.426 0 0 0-.24-.217c-25.273-9.667-23.925-9.259-24.116-8.975-7.295 7.471-6.925 7.049-6.948 7.221v6.776l18.892 7.225v19.764a360.2 360.2 0 0 0 5.114 1.821.378.378 0 0 0 .314-.064.372.372 0 0 0 .146-.281c0-25.997-.09-25.747.011-25.76a7.777 7.777 0 0 0 3.174-1.025 7.644 7.644 0 0 0 2.433-2.253 6.968 6.968 0 0 0 1.22-4.232Zm-6.47 6.74c-.731.106-.532.113-.9-.026-1.517-.58-22.679-8.692-22.928-8.791l6.307-6.46c.721.276 23.036 8.828 23.27 8.912a6.566 6.566 0 0 1-1.698 4.213 6.757 6.757 0 0 1-4.051 2.152Z"></path><path id="vector_27" fill="#9345db" d="M112.6 105.872a7.196 7.196 0 0 1-1.3 4.109 7.536 7.536 0 0 1-2.416 2.215 7.651 7.651 0 0 1-3.142.994c-.251.047-.511.01-.738-.105v25.865a.369.369 0 0 0 .234.333c.016.007.13.026.13.026a7.57 7.57 0 0 0 2.841-.644 7.45 7.45 0 0 0 2.373-1.669 7.332 7.332 0 0 0 1.541-2.438 7.24 7.24 0 0 0 .473-2.834c.004-11.738.014-25.751.004-25.852Z"></path><path id="vector_28" fill="#ffffff" d="m82.279 103.601 23.187 8.891c2.1.302 6.238-2.14 6.39-6.438l-23.27-8.912-6.307 6.459Z"></path><path id="vector_29" fill="#e9e9e9" d="M112.572 105.679a.427.427 0 0 0-.24-.217c-16.652-6.371-23.711-9.08-23.826-9.097a.293.293 0 0 0-.29.122c-4.51 4.618-6.086 6.217-6.639 6.808-.36.385-.312.3-.314.818v25.752a.368.368 0 0 0 .267.345c3.879 1.561 17.22 6.827 23.7 9.068-.131-.058-.195.094-.225-.973-.053-1.894.006-7.633.006-25.216.227.116.487.153.738.105a7.602 7.602 0 0 0 3.628-1.298 7.439 7.439 0 0 0 2.498-2.898 6.398 6.398 0 0 0 .697-3.319Zm-6.47 6.739c-.734.107-.537.111-.9-.026-1.516-.58-22.678-8.691-22.927-8.791l6.307-6.46c.721.276 23.036 8.828 23.27 8.913a6.567 6.567 0 0 1-1.699 4.214 6.756 6.756 0 0 1-4.053 2.15h.002Z"></path><path id="vector_30" fill="#9345db" d="m97.332 123.662-9.274-3.606c-.436-.17-.625.524-.193.689l9.274 3.606c.435.172.624-.522.193-.689Z"></path><path id="vector_31" fill="#9345db" d="m97.332 120.338-9.274-3.606c-.435-.168-.625.524-.193.69l9.274 3.606c.435.171.624-.522.193-.69Z"></path><path id="vector_32" fill="#9345db" d="M108.031 79.225c-.329-.424-.58-.9-.741-1.41-.011.12-.007 2.783-.007 8.8l9.187 3.514v-8.118c-1.523.5-3.17.499-4.692-.004a7.387 7.387 0 0 1-3.747-2.782Z"></path><path id="vector_33" fill="#ffffff" d="m116.442 81.262 17.63-17.509-8.453-3.349-17.528 17.517a6.681 6.681 0 0 0 3.522 3.254 6.817 6.817 0 0 0 4.829.087Z"></path><path id="vector_34" fill="#e9e9e9" d="M125.623 59.636a.289.289 0 0 0-.207-.018.283.283 0 0 0-.163.126C106.3 78.687 107.3 77.618 107.29 77.815c.161.508.412.984.741 1.406a7.386 7.386 0 0 0 3.747 2.782 7.505 7.505 0 0 0 4.692.004v8.122l4.935 1.889v-8.293c0-.23-.183.036 13.671-13.813v-6.29c0-.39.307-.118-9.453-3.986Zm-9.181 21.627a6.813 6.813 0 0 1-4.829-.086 6.677 6.677 0 0 1-3.522-3.255c.529-.529 16.87-16.822 17.528-17.519l8.453 3.35c-18.572 18.562-17.362 17.411-17.63 17.51Z"></path><path id="vector_35" fill="#9345db" d="M131.319 87.515a1.797 1.797 0 0 1-.862.41c-5.437 1.662-8.953-3.264-9.045-4.235.012.124-.007 2.045-.007 8.329 3.814 1.458 3.514 1.255 3.56 1.67.011.098 0-1.757 0 19.896 1.287.63 2.732.88 4.16.719a7.354 7.354 0 0 0 1.948-.492.367.367 0 0 0 .246-.334s.038-24.94 0-25.963Z"></path><path id="vector_36" fill="#ffffff" d="M122.212 83.795c2.738 5.505 8.45 3.169 8.539 3.267l17.442-17.434-8.453-3.35-17.528 17.517Z"></path><path id="vector_37" fill="#e9e9e9" d="M149.2 69.497a.382.382 0 0 0-.283-.338c-.486-.223-2.264-.911-9.171-3.645a.289.289 0 0 0-.37.109c-19.043 19.037-17.95 17.88-17.962 18.075.161.508.412.984.741 1.405a7.388 7.388 0 0 0 3.678 2.758 7.507 7.507 0 0 0 4.622.07c.318-.063.614-.204.862-.41.01.27 0 .098 0 25.965a.336.336 0 0 1-.146.276c.075-.054 17.87-17.836 17.918-17.895.175-.219.111 1.37.111-26.37Zm-18.449 17.565a.927.927 0 0 0-.187.074 6.814 6.814 0 0 1-4.829-.086 6.677 6.677 0 0 1-3.523-3.255c.529-.529 16.87-16.82 17.528-17.52l8.453 3.35C128 89.816 131.059 86.736 130.751 87.062Z"></path><path id="vector_38" fill="#9345db" d="m137.893 95.988 6.536-6.304c.336-.323-.179-.83-.514-.506l-6.536 6.304c-.335.322.179.83.514.506Z"></path><path id="vector_39" fill="#9345db" d="m137.893 92.067 6.536-6.304c.336-.323-.179-.83-.514-.507l-6.536 6.304c-.335.324.179.833.514.507Z"></path></g></g><g id="line"><g id="group_2"><path id="vector_40" fill="#000000" d="M109.725 55.643a11.542 11.542 0 0 0-5.642-1.547 11.552 11.552 0 0 0-5.678 1.414 6.571 6.571 0 0 0-2.109 1.74c-.57.72-.98 1.55-1.204 2.437a6.4 6.4 0 0 0 .95 5.217 10.751 10.751 0 0 0 3.657 3.15 10.925 10.925 0 0 0 4.689 1.251v6.684a.365.365 0 0 0 .728 0v-6.645c5.249.167 8.449-2.567 9.207-5.902.771-3.395-1.779-6.242-4.598-7.8Zm2.175 10.709c-3.461 3.5-10.751 2.781-14.3-.715a5.84 5.84 0 0 1-1.476-1.99 5.76 5.76 0 0 1 .038-4.82 5.844 5.844 0 0 1 1.508-1.968 8.192 8.192 0 0 1 2.359-1.317 10.744 10.744 0 0 1 8.192.165c2.58 1.092 5.453 3.338 5.523 6.35a6.083 6.083 0 0 1-1.844 4.294Z"></path><path id="vector_41" fill="#000000" d="M164.952 79.79a10.018 10.018 0 0 0-4.444-4.541 10.234 10.234 0 0 0-6.323-.997 10.442 10.442 0 0 0-4.985 2.874v1.003a11.867 11.867 0 0 1 3.879-2.786c5.048-2.09 11.049 2.167 11.475 5.811.372 3.183-2.086 6.808-5.813 7.87a9.845 9.845 0 0 1-7.016-.764 16.66 16.66 0 0 1-2.525-1.678v.9a11.295 11.295 0 0 0 7.029 2.602v5.653a.355.355 0 0 0 .113.241.367.367 0 0 0 .614-.24v-5.684c6.19-.455 9.544-6.47 7.996-10.264Z"></path><path id="vector_42" fill="#000000" d="M45.306 91.911c-6.844-2.572-15.487 2.888-14.059 9.904a6.12 6.12 0 0 0 1.107 2.444 6.235 6.235 0 0 0 2.055 1.751 14.464 14.464 0 0 0 5.633 1.648v7.084a.357.357 0 0 0 .113.241.368.368 0 0 0 .501 0 .357.357 0 0 0 .113-.241v-7.037a10.502 10.502 0 0 0 5.371-1.157v-.835c-3.609 2.525-12.007 1.144-13.8-2.856a6.656 6.656 0 0 1-.043-5.024c1.655-4.352 7.611-7.08 12.67-5.283.438.118.84.336 1.177.636v-.911a6.185 6.185 0 0 0-.838-.364Z"></path><path id="vector_43" fill="#000000" d="M34.07 83.704a11.779 11.779 0 0 0-2.894-4.05 11.996 11.996 0 0 0-4.328-2.52 12.274 12.274 0 0 0-5.139-.207 12.198 12.198 0 0 0-4.761 1.914c-3.523 2.396-5.454 7.112-3.611 11.102 1.631 3.531 5.764 5.418 9.731 5.607v8.104a.357.357 0 0 0 .113.242.367.367 0 0 0 .501 0 .357.357 0 0 0 .113-.242v-8.077c3.322.013 6.629-.737 9.049-2.937 2.28-2.08 2.313-6.15 1.226-8.936Zm-.077 4.567a5.333 5.333 0 0 1-.81 2.872 5.446 5.446 0 0 1-2.235 2.01 13.751 13.751 0 0 1-7.716 1.688c-5.561-.142-10.623-3.862-9.806-9.28 1.018-6.76 9.332-9.85 14.64-7.173 3.977 2.006 6.301 5.616 5.927 9.883Z"></path><path id="vector_44" fill="#000000" d="M192.3 91.91c-9.285-10.43-30.911 3.586-22.991 13.214 2.659 3.232 7.209 3.684 11.42 3.431v11.615a.354.354 0 0 0 .113.241.368.368 0 0 0 .501 0 .354.354 0 0 0 .113-.241v-11.662c2.707-.227 6.928-.908 9.061-2.555 4.255-3.288 5.683-9.666 1.783-14.043Zm.093 10.869a8.861 8.861 0 0 1-3.738 3.435 27.33 27.33 0 0 1-10.946 1.631 11.354 11.354 0 0 1-6.614-1.986 6.823 6.823 0 0 1-2.026-2.389 6.711 6.711 0 0 1-.732-3.029c.114-4.37 4.392-7.996 8.435-9.904 11.428-5.389 20.841 3.79 15.628 12.242h-.007Z"></path><path id="vector_45" fill="#000000" d="M68.822 136.237c-11.346 9.568-16.841 3.614-28.067-1.044-6.319-2.622-12.372-4.027-19.053-2.793-6.568 1.21-12.47 4.717-16.619 9.875-.284.36.227.87.515.507a27.094 27.094 0 0 1 14.68-9.341c6.614-1.638 12.589-.566 18.932 1.899 7.021 2.729 12.214 6.613 18.128 6.719 9.155.163 18.2-11.085 23.924-18.231v-1.146c-3.8 4.777-7.744 9.596-12.44 13.555Z"></path><path id="vector_46" fill="#000000" d="m50.02 135.701-1.247-2.704c-.193-.42-.82-.055-.628.361l1.247 2.704c.193.42.82.055.628-.361Z"></path><path id="vector_47" fill="#000000" d="m51.884 135.984 1.046-3.309c.14-.442-.562-.63-.7-.191l-1.046 3.31c-.141.441.561.628.7.19Z"></path><path id="vector_48" fill="#000000" d="m13.845 115.263 2.042 2.167c.319.339.832-.169.514-.508l-2.041-2.167c-.319-.338-.833.169-.515.508Z"></path><path id="vector_49" fill="#000000" d="M17.605 113.988v3.191c0 .096.038.187.107.254a.368.368 0 0 0 .514 0 .355.355 0 0 0 .107-.254v-3.191a.364.364 0 0 0-.364-.358.364.364 0 0 0-.364.358Z"></path><path id="vector_50" fill="#000000" d="M171.79 109.493a100.994 100.994 0 0 1-13.6 12.968c-5.78 4.553-8.023 3.978-18.414-.219-3.275-1.322-13.133-5.53-14.811-6.254v.778c4.54 1.961 16.826 7.296 21.559 8.746 6.118 1.871 8.447.525 13.5-3.604a100.81 100.81 0 0 0 12.28-11.909c.304-.348-.204-.861-.514-.506Z"></path><path id="vector_51" fill="#000000" d="M147.65 135.794a.369.369 0 0 0-.653-.068.354.354 0 0 0-.047.258l.829 2.782a.36.36 0 0 0 .175.199.372.372 0 0 0 .266.028.36.36 0 0 0 .259-.418l-.829-2.781Z"></path><path id="vector_52" fill="#000000" d="M149.787 134.887v3.783c0 .095.038.187.107.254a.366.366 0 0 0 .621-.254v-3.783a.356.356 0 0 0-.107-.254.366.366 0 0 0-.621.254Z"></path><path id="vector_53" fill="#000000" d="m155.722 109.266 1.139 3.225c.153.432.856.246.7-.19l-1.139-3.225c-.152-.431-.855-.247-.7.19Z"></path><path id="vector_54" fill="#000000" d="m159.539 109.17-.324 3.225c-.046.459.682.456.728 0l.324-3.225c.046-.458-.682-.455-.728 0Z"></path><path id="vector_55" fill="#000000" d="M189.843 123.49c-.3-.353-.814.156-.514.507l2.2 2.579c.3.354.814-.155.514-.506l-2.2-2.58Z"></path><path id="vector_56" fill="#000000" d="m194.285 123.648-.592 2.194a.352.352 0 0 0 .046.259.364.364 0 0 0 .479.131.363.363 0 0 0 .175-.199l.592-2.194a.36.36 0 0 0-.259-.418.372.372 0 0 0-.266.028.36.36 0 0 0-.175.199Z"></path><path id="vector_57" fill="#000000" d="M73.883 75.468a7.393 7.393 0 0 0-3.726-3.69 7.554 7.554 0 0 0-5.274-.328 1.938 1.938 0 0 0-.861.41c-1.08 1.083-16.753 16.686-17.693 17.685-.29.309-.186-1.709-.186 26.447a.373.373 0 0 0 .267.344l9.186 3.645c.268.106-.249.511 7.911-7.647v-1.02c-.468.468-7.41 7.401-7.45 7.438 0 0 .033-24.108.007-25.09.553-.552 16.62-16.596 17.144-17.125v10.444l.728-.728c-.003-11.215.024-10.617-.053-10.785ZM55.31 119.103l-8.443-3.349s.021-24.46.006-25.342l8.453 3.35c0 28.025.009 24.491-.016 25.336v.005ZM55.6 93.1l-8.453-3.349c4.453-4.458 17.175-17.157 17.439-17.437.089.098 4.572-2.03 7.82 2.1.28.364.52.755.719 1.167C69.071 79.634 56.256 92.4 55.6 93.1Z"></path><path id="vector_58" fill="#000000" d="M91.218 82.346a7.393 7.393 0 0 0-3.73-3.642 7.552 7.552 0 0 0-5.243-.312 1.947 1.947 0 0 0-.862.41c-1.083 1.081-16.752 16.692-17.692 17.69-.291.307-.187-1.451-.187 26.446.002.078.03.153.077.215a.38.38 0 0 0 .19.131l9.187 3.644a.39.39 0 0 0 .354-.092l7.95-7.948v-1.021c-.6.6-7.806 7.801-7.844 7.836 0 0 .039-24.064 0-25.086.555-.556 16.627-16.603 17.15-17.132v13.65l.728.28c.004-15.977.044-14.803-.078-15.069Zm-18.544 43.695-8.442-3.349s.02-24.466.006-25.341l8.453 3.348s-.011 25.164-.017 25.346v-.004Zm.288-25.999-8.454-3.349c18.607-18.6 17.371-17.416 17.63-17.509a6.815 6.815 0 0 1 4.83.087 6.68 6.68 0 0 1 3.522 3.254c-4.17 4.17-16.869 16.822-17.528 17.521v-.004Z"></path><path id="vector_59" fill="#000000" d="M124.965 93.627a.379.379 0 0 0-.079-.213.39.39 0 0 0-.188-.133c-16.6-6.35-23.712-9.08-23.826-9.098-.222-.035.3-.493-7.137 7.136-.156.159-.107-.207-.107 6.987l.728.279v-6.488c.928.355 22.779 8.725 23.017 8.811v25.355c-1.6-.556-3.191-1.13-4.774-1.723v.757c5.524 2.053 5.02 1.842 5.438 1.806a7.48 7.48 0 0 0 5.013-2.397 7.262 7.262 0 0 0 1.915-5.156s.005-24.141 0-25.923Zm-30.32-2.206 6.307-6.46c.721.276 23.036 8.828 23.27 8.911a6.566 6.566 0 0 1-1.7 4.216 6.75 6.75 0 0 1-4.054 2.149c-.731.107-.532.114-.9-.025a22670.11 22670.11 0 0 1-22.923-8.791Zm23.455 34.954s.013-25.127.011-25.368a7.655 7.655 0 0 0 3.512-1.225 7.51 7.51 0 0 0 2.496-2.724c.184-.348.118-2.914.118 22.043 0 4.538-2.829 6.958-6.137 7.274Z"></path><path id="vector_60" fill="#000000" d="M112.6 105.939c-.007-.233-.03-.384-.27-.477l-23.743-9.085c-.288-.11.145-.416-7.218 7.123-.166.169-.107-1.491-.107 26.365a.368.368 0 0 0 .267.345c3.844 1.547 17.171 6.807 23.641 9.048a.624.624 0 0 0 .386.037 7.483 7.483 0 0 0 5.092-2.366 7.26 7.26 0 0 0 1.951-5.201s.047-24.292.001-25.789Zm-30.61 23.687v-25.351l23.017 8.809s-.023 24.452-.005 25.356c-6.237-2.175-16.869-6.352-23.012-8.814Zm23.476-17.134c-.014 0-23.174-8.885-23.187-8.891l6.307-6.46c.721.276 23.036 8.828 23.27 8.913a6.553 6.553 0 0 1-1.433 3.9 6.721 6.721 0 0 1-3.508 2.295 7.805 7.805 0 0 1-1.449.243Zm6.3 20.675a6.596 6.596 0 0 1-2.091 3.696 6.773 6.773 0 0 1-3.937 1.692l.011-25.367a9.185 9.185 0 0 0 2.2-.529 7.556 7.556 0 0 0 3.812-3.42c.183-.344.117-2.918.117 22.046a9.853 9.853 0 0 1-.116 1.887l.004-.005Z"></path><path id="vector_61" fill="#000000" d="m97.332 123.662-9.274-3.606c-.436-.17-.625.524-.193.689l9.274 3.606c.435.172.624-.522.193-.689Z"></path><path id="vector_62" fill="#000000" d="m97.332 120.338-9.274-3.606c-.435-.168-.625.524-.193.69l9.274 3.606c.435.171.624-.522.193-.69Z"></path><path id="vector_63" fill="#000000" d="m134.809 63.277-9.186-3.644a.289.289 0 0 0-.207-.017.283.283 0 0 0-.163.125c-19.09 19.082-17.97 17.796-17.97 18.172v8.703l.728.278c0-1.61.02-7.672.02-7.672a7.395 7.395 0 0 0 3.747 2.78 7.516 7.516 0 0 0 4.692.005v8.123l.727.28c.044-9.77-.077-8.693.168-8.939 1.024-1.023 16.2-16.17 16.984-16.967v6.134l.727-.727v-6.289a.422.422 0 0 0-.267-.345ZM116.628 81.19a6.591 6.591 0 0 1-4.282.296 6.501 6.501 0 0 1-3.536-2.398 6.71 6.71 0 0 1-.719-1.167c.529-.529 16.87-16.822 17.528-17.519l8.453 3.35c-23.064 23.057-16.183 16.078-17.444 17.438Z"></path><path id="vector_64" fill="#000000" d="M149.2 69.622c0-.444-.11-.405-.267-.471-2.659-1.117-8.806-3.49-9.187-3.645a.29.29 0 0 0-.37.109c-14.076 14.072-17.158 17.073-17.81 17.815-.226.257-.161.246-.161.33v8.258l.727.278c0-1.452.021-7.202.021-7.202a7.397 7.397 0 0 0 3.747 2.78 7.515 7.515 0 0 0 4.691.007s-.027 25.071-.016 25.342a6.932 6.932 0 0 1-5.61-.443v.808a7.505 7.505 0 0 0 5.927.296 1.04 1.04 0 0 0 .538-.372c18.9-18.896 17.579-17.553 17.661-17.654.169-.205.109 1.45.109-26.236Zm-18.45 17.442a2.232 2.232 0 0 1-.587.197 6.81 6.81 0 0 1-4.623-.296 6.672 6.672 0 0 1-3.328-3.174c.529-.529 16.87-16.82 17.528-17.52l8.453 3.35c-6.823 6.827-17.355 17.343-17.443 17.443Zm17.713 8.405c-.553.553-17.1 17.094-17.144 17.132 0 0 .028-24.12.013-25.099.035-.034 16.357-16.325 17.138-17.122 0 21.481-.018 24.968-.007 25.09Z"></path><path id="vector_65" fill="#000000" d="m137.893 95.988 6.536-6.304c.336-.323-.179-.83-.514-.506l-6.536 6.304c-.335.322.179.83.514.506Z"></path><path id="vector_66" fill="#000000" d="m137.893 92.067 6.536-6.304c.336-.323-.179-.83-.514-.507l-6.536 6.304c-.335.324.179.833.514.507Z"></path></g></g></g></svg>